<svg width="24" height="24" viewBox="0 0 24 24" fill="none" xmlns="http://www.w3.org/2000/svg">
<path d="M4.41 13.4234H12M4.41 14.8464H8.205M2.75 7.01992C2.75 6.89403 2.79998 6.77329 2.88895 6.68422C2.97792 6.59516 3.09861 6.54505 3.2245 6.54492H20.775C20.9009 6.54505 21.0216 6.59516 21.1106 6.68422C21.1995 6.77329 21.2495 6.89403 21.2495 7.01992V16.9814C21.2492 17.1071 21.1991 17.2276 21.1102 17.3165C21.0213 17.4053 20.9007 17.4553 20.775 17.4554H3.225C3.09928 17.4553 2.97874 17.4053 2.8898 17.3165C2.80086 17.2276 2.75076 17.1071 2.7505 16.9814L2.75 7.01992Z" stroke="#63707C" stroke-linecap="round" stroke-linejoin="round"/>
<path d="M17.793 12.9494H15.7945C15.6687 12.9494 15.548 12.9994 15.459 13.0884C15.37 13.1773 15.32 13.298 15.32 13.4239C15.32 13.5497 15.37 13.6704 15.459 13.7594C15.548 13.8484 15.6687 13.8984 15.7945 13.8984H17.7935M3.93555 17.4559V18.4304C3.93555 18.8234 4.25405 19.1419 4.64705 19.1419H19.352C19.745 19.1419 20.0635 18.8234 20.0635 18.4304V17.4559M3.93555 6.54588V5.57088C3.93555 5.17788 4.25405 4.85938 4.64705 4.85938H19.352C19.745 4.85938 20.0635 5.17788 20.0635 5.57088V6.54537M19.5895 13.4239C19.5895 13.6755 19.4896 13.9168 19.3117 14.0947C19.1337 14.2727 18.8924 14.3726 18.6408 14.3726C18.3892 14.3726 18.1479 14.2727 17.9699 14.0947C17.792 13.9168 17.692 13.6755 17.692 13.4239C17.692 13.1723 17.792 12.9311 17.9699 12.7532C18.1477 12.5753 18.389 12.4754 18.6405 12.4754C18.8921 12.4754 19.1334 12.5753 19.3112 12.7532C19.4891 12.9311 19.5895 13.1723 19.5895 13.4239ZM4.17255 8.44338C4.17255 8.31748 4.22252 8.19674 4.31149 8.10768C4.40047 8.01861 4.52116 7.96851 4.64705 7.96838H14.6085C14.7344 7.96851 14.8551 8.01861 14.9441 8.10768C15.0331 8.19674 15.083 8.31748 15.083 8.44338V9.86638C15.0828 9.99209 15.0327 10.1126 14.9437 10.2014C14.8548 10.2903 14.7343 10.3402 14.6085 10.3404H4.64705C4.52133 10.3402 4.40079 10.2903 4.31185 10.2014C4.2229 10.1126 4.17281 9.99209 4.17255 9.86638V8.44338Z" stroke="#63707C" stroke-linecap="round" stroke-linejoin="round"/>
</svg>
