<svg width="24" height="24" viewBox="0 0 24 24" fill="none" xmlns="http://www.w3.org/2000/svg">
<path d="M22.182 8.90742C22.182 7.8668 21.3289 7.01367 20.2883 7.01367C19.2477 7.01367 18.3945 7.8668 18.3945 8.90742C18.3945 9.2543 18.4977 9.58242 18.6664 9.86367L16.1164 12.4137C15.8539 12.2824 15.5633 12.198 15.2539 12.198C14.8602 12.198 14.5039 12.3199 14.1945 12.5168L11.6352 9.9668C11.8414 9.6668 11.9633 9.30117 11.9633 8.90742C11.9633 7.8668 11.1102 7.01367 10.0695 7.01367C9.02891 7.01367 8.17578 7.8668 8.17578 8.90742C8.17578 9.2168 8.26016 9.50742 8.39141 9.76055L5.68203 12.4699C5.40078 12.3012 5.07266 12.198 4.72578 12.198C3.68516 12.198 2.83203 13.0512 2.83203 14.0918C2.83203 15.1324 3.68516 15.9855 4.72578 15.9855C5.76641 15.9855 6.61953 15.1324 6.61953 14.0918C6.61953 13.7449 6.51641 13.4168 6.34766 13.1355L9.01016 10.473C9.31016 10.6793 9.67578 10.8012 10.0695 10.8012C10.3789 10.8012 10.6695 10.7168 10.9227 10.5855L13.5664 13.2293C13.4352 13.4918 13.3508 13.7824 13.3508 14.0918C13.3508 15.1324 14.2039 15.9855 15.2445 15.9855C16.2852 15.9855 17.1383 15.1324 17.1383 14.0918C17.1383 13.698 17.0164 13.3324 16.8195 13.0324L19.3227 10.5293C19.6039 10.698 19.932 10.8012 20.2789 10.8012C21.3289 10.8012 22.182 9.94805 22.182 8.90742ZM4.72578 15.0387C4.20078 15.0387 3.76953 14.6074 3.76953 14.0824C3.76953 13.5574 4.20078 13.1262 4.72578 13.1262C4.98828 13.1262 5.22266 13.2293 5.40078 13.4074C5.56953 13.5762 5.68203 13.8199 5.68203 14.0824C5.68203 14.6168 5.25078 15.0387 4.72578 15.0387ZM10.0695 9.8543C9.54453 9.8543 9.11328 9.42305 9.11328 8.89805C9.11328 8.37305 9.54453 7.9418 10.0695 7.9418C10.5945 7.9418 11.0258 8.37305 11.0258 8.89805C11.0258 9.43242 10.5945 9.8543 10.0695 9.8543ZM15.2539 15.0387C14.7289 15.0387 14.2977 14.6074 14.2977 14.0824C14.2977 13.5574 14.7289 13.1262 15.2539 13.1262C15.7789 13.1262 16.2102 13.5574 16.2102 14.0824C16.2008 14.6168 15.7789 15.0387 15.2539 15.0387ZM19.6133 9.57305C19.4445 9.4043 19.332 9.16055 19.332 8.89805C19.332 8.37305 19.7633 7.9418 20.2883 7.9418C20.8133 7.9418 21.2445 8.37305 21.2445 8.89805C21.2445 9.42305 20.8133 9.8543 20.2883 9.8543C20.0258 9.8543 19.782 9.75117 19.6133 9.57305Z" fill="#63707C"/>
<path d="M0.891016 19.9414C1.17227 19.9414 1.39727 19.7164 1.39727 19.4352V2.07266C1.39727 1.79141 1.17227 1.56641 0.891016 1.56641C0.609766 1.56641 0.384766 1.79141 0.384766 2.07266V19.4352C0.384766 19.7164 0.609766 19.9414 0.891016 19.9414Z" fill="#63707C"/>
<path d="M3.53477 21.4219H0.891016C0.609766 21.4219 0.384766 21.6469 0.384766 21.9281C0.384766 22.2094 0.609766 22.4344 0.891016 22.4344H3.54414C3.82539 22.4344 4.05039 22.2094 4.05039 21.9281C4.05039 21.6469 3.81602 21.4219 3.53477 21.4219Z" fill="#63707C"/>
<path d="M8.4293 21.4219H5.78555C5.5043 21.4219 5.2793 21.6469 5.2793 21.9281C5.2793 22.2094 5.5043 22.4344 5.78555 22.4344H8.43867C8.71992 22.4344 8.94492 22.2094 8.94492 21.9281C8.94492 21.6469 8.71055 21.4219 8.4293 21.4219Z" fill="#63707C"/>
<path d="M13.3215 21.4219H10.6684C10.3871 21.4219 10.1621 21.6469 10.1621 21.9281C10.1621 22.2094 10.3871 22.4344 10.6684 22.4344H13.3215C13.6027 22.4344 13.8277 22.2094 13.8277 21.9281C13.8277 21.6469 13.6027 21.4219 13.3215 21.4219Z" fill="#63707C"/>
<path d="M18.216 21.4219H15.5629C15.2816 21.4219 15.0566 21.6469 15.0566 21.9281C15.0566 22.2094 15.2816 22.4344 15.5629 22.4344H18.216C18.4973 22.4344 18.7223 22.2094 18.7223 21.9281C18.7223 21.6469 18.4973 21.4219 18.216 21.4219Z" fill="#63707C"/>
<path d="M23.1105 21.4219H20.4574C20.1762 21.4219 19.9512 21.6469 19.9512 21.9281C19.9512 22.2094 20.1762 22.4344 20.4574 22.4344H23.1105C23.3918 22.4344 23.6168 22.2094 23.6168 21.9281C23.6168 21.6469 23.3918 21.4219 23.1105 21.4219Z" fill="#63707C"/>
</svg>
