<svg width="24" height="24" viewBox="0 0 24 24" fill="none" xmlns="http://www.w3.org/2000/svg">
<path fill-rule="evenodd" clip-rule="evenodd" d="M12 8.25C11.0054 8.25 10.0516 8.64509 9.34835 9.34835C8.64509 10.0516 8.25 11.0054 8.25 12C8.25 12.9946 8.64509 13.9484 9.34835 14.6517C10.0516 15.3549 11.0054 15.75 12 15.75C12.9946 15.75 13.9484 15.3549 14.6517 14.6517C15.3549 13.9484 15.75 12.9946 15.75 12C15.75 11.0054 15.3549 10.0516 14.6517 9.34835C13.9484 8.64509 12.9946 8.25 12 8.25ZM9.75 12C9.75 11.4033 9.98705 10.831 10.409 10.409C10.831 9.98705 11.4033 9.75 12 9.75C12.5967 9.75 13.169 9.98705 13.591 10.409C14.0129 10.831 14.25 11.4033 14.25 12C14.25 12.5967 14.0129 13.169 13.591 13.591C13.169 14.0129 12.5967 14.25 12 14.25C11.4033 14.25 10.831 14.0129 10.409 13.591C9.98705 13.169 9.75 12.5967 9.75 12Z" fill="#63707C"/>
<path fill-rule="evenodd" clip-rule="evenodd" d="M11.9758 1.25C11.5308 1.25 11.1598 1.25 10.8558 1.27C10.545 1.28252 10.2384 1.34673 9.94875 1.46C9.615 1.59809 9.31172 1.80057 9.05624 2.05589C8.80075 2.3112 8.59806 2.61434 8.45975 2.948C8.31475 3.298 8.27575 3.668 8.25975 4.07C8.25796 4.21698 8.21897 4.36112 8.14639 4.48895C8.07382 4.61678 7.97005 4.72414 7.84475 4.801C7.71558 4.87132 7.57068 4.90775 7.42361 4.90687C7.27653 4.906 7.13208 4.86785 7.00375 4.796C6.64775 4.608 6.30775 4.457 5.93175 4.407C5.5737 4.3599 5.20987 4.38379 4.86105 4.4773C4.51222 4.57081 4.18524 4.73212 3.89875 4.952C3.65614 5.14648 3.44762 5.38001 3.28175 5.643C3.11175 5.897 2.92575 6.218 2.70375 6.603L2.67875 6.647C2.45575 7.032 2.27075 7.353 2.13675 7.627C1.99675 7.913 1.88675 8.195 1.84675 8.507C1.75135 9.22999 1.94703 9.96127 2.39075 10.54C2.62175 10.841 2.92275 11.06 3.26275 11.274C3.38938 11.3491 3.49489 11.4551 3.5694 11.582C3.6439 11.709 3.68497 11.8528 3.68875 12C3.68497 12.1472 3.6439 12.291 3.5694 12.418C3.49489 12.5449 3.38938 12.6509 3.26275 12.726C2.92275 12.94 2.62275 13.159 2.39075 13.46C2.17087 13.7465 2.00957 14.0735 1.91605 14.4223C1.82254 14.7711 1.79865 15.1349 1.84575 15.493C1.88675 15.805 1.99575 16.087 2.13575 16.373C2.27075 16.647 2.45575 16.968 2.67875 17.353L2.70375 17.397C2.92575 17.782 3.11175 18.103 3.28175 18.357C3.45875 18.62 3.64875 18.857 3.89875 19.047C4.18516 19.2671 4.51211 19.4285 4.86094 19.5222C5.20977 19.6159 5.57363 19.64 5.93175 19.593C6.30775 19.543 6.64775 19.393 7.00375 19.204C7.13196 19.1323 7.27623 19.0943 7.42311 19.0934C7.56999 19.0925 7.7147 19.1289 7.84375 19.199C7.97007 19.2749 8.07476 19.382 8.14778 19.51C8.2208 19.638 8.2597 19.7826 8.26075 19.93C8.27575 20.332 8.31475 20.702 8.46075 21.052C8.59884 21.3857 8.80132 21.689 9.05664 21.9445C9.31195 22.2 9.61509 22.4027 9.94875 22.541C10.2388 22.661 10.5388 22.708 10.8558 22.729C11.1598 22.75 11.5308 22.75 11.9758 22.75H12.0258C12.4708 22.75 12.8418 22.75 13.1458 22.73C13.4638 22.708 13.7628 22.661 14.0528 22.54C14.3865 22.4019 14.6898 22.1994 14.9453 21.9441C15.2008 21.6888 15.4034 21.3857 15.5418 21.052C15.6868 20.702 15.7258 20.332 15.7418 19.93C15.7434 19.7828 15.7823 19.6385 15.8549 19.5105C15.9274 19.3825 16.0313 19.275 16.1568 19.198C16.286 19.1278 16.431 19.0916 16.578 19.0926C16.7251 19.0937 16.8695 19.132 16.9978 19.204C17.3538 19.392 17.6938 19.543 18.0698 19.592C18.7927 19.6874 19.524 19.4917 20.1028 19.048C20.3528 18.856 20.5428 18.62 20.7198 18.357C20.8898 18.103 21.0758 17.782 21.2978 17.397L21.3228 17.353C21.5458 16.968 21.7308 16.647 21.8648 16.373C22.0048 16.087 22.1147 15.804 22.1548 15.493C22.2502 14.77 22.0545 14.0387 21.6108 13.46C21.3798 13.159 21.0788 12.94 20.7388 12.726C20.6121 12.6509 20.5066 12.5449 20.4321 12.418C20.3576 12.291 20.3165 12.1472 20.3128 12C20.3128 11.722 20.4648 11.446 20.7388 11.274C21.0788 11.06 21.3788 10.841 21.6108 10.54C21.8306 10.2535 21.9919 9.92653 22.0854 9.5777C22.179 9.22888 22.2029 8.86506 22.1558 8.507C22.1086 8.1996 22.0106 7.90219 21.8658 7.627C21.695 7.29478 21.5139 6.96795 21.3228 6.647L21.2978 6.603C21.1151 6.27708 20.9223 5.95692 20.7198 5.643C20.5538 5.38036 20.3453 5.14718 20.1028 4.953C19.8163 4.73294 19.4894 4.57146 19.1406 4.47778C18.7917 4.38409 18.4279 4.36004 18.0698 4.407C17.6938 4.457 17.3538 4.607 16.9978 4.796C16.8695 4.86767 16.7253 4.90572 16.5784 4.9066C16.4315 4.90747 16.2868 4.87114 16.1578 4.801C16.0321 4.72438 15.9279 4.61712 15.855 4.48928C15.7821 4.36143 15.7427 4.21717 15.7408 4.07C15.7258 3.668 15.6868 3.298 15.5408 2.948C15.4027 2.61425 15.2002 2.31097 14.9449 2.05549C14.6896 1.8 14.3864 1.59731 14.0528 1.459C13.7628 1.339 13.4628 1.292 13.1458 1.271C12.8418 1.25 12.4708 1.25 12.0258 1.25H11.9758ZM10.5228 2.845C10.5998 2.813 10.7168 2.784 10.9578 2.767C11.2048 2.75 11.5248 2.75 12.0008 2.75C12.4768 2.75 12.7968 2.75 13.0438 2.767C13.2848 2.784 13.4018 2.813 13.4788 2.845C13.7858 2.972 14.0288 3.215 14.1558 3.522C14.1958 3.618 14.2288 3.769 14.2418 4.126C14.2718 4.918 14.6808 5.681 15.4068 6.1C16.1328 6.519 16.9978 6.492 17.6988 6.122C18.0148 5.955 18.1618 5.908 18.2658 5.895C18.5943 5.85158 18.9267 5.94043 19.1898 6.142C19.2558 6.193 19.3398 6.28 19.4748 6.48C19.6138 6.686 19.7738 6.963 20.0118 7.375C20.2498 7.787 20.4088 8.065 20.5178 8.287C20.6248 8.504 20.6578 8.62 20.6678 8.703C20.7112 9.03157 20.6223 9.36392 20.4208 9.627C20.3568 9.71 20.2428 9.814 19.9408 10.004C19.2688 10.426 18.8128 11.162 18.8128 12C18.8128 12.838 19.2688 13.574 19.9408 13.996C20.2428 14.186 20.3568 14.29 20.4208 14.373C20.6228 14.636 20.7108 14.968 20.6678 15.297C20.6578 15.38 20.6238 15.497 20.5178 15.713C20.4088 15.936 20.2498 16.213 20.0118 16.625C19.7738 17.037 19.6128 17.314 19.4748 17.52C19.3398 17.72 19.2558 17.807 19.1898 17.858C18.9267 18.0596 18.5943 18.1484 18.2658 18.105C18.1618 18.092 18.0158 18.045 17.6988 17.878C16.9988 17.508 16.1328 17.48 15.4068 17.899C14.6808 18.318 14.2718 19.082 14.2418 19.874C14.2288 20.231 14.1958 20.382 14.1558 20.478C14.0929 20.6298 14.0008 20.7677 13.8846 20.8839C13.7685 21.0001 13.6305 21.0922 13.4788 21.155C13.4018 21.187 13.2848 21.216 13.0438 21.233C12.7968 21.25 12.4768 21.25 12.0008 21.25C11.5248 21.25 11.2048 21.25 10.9578 21.233C10.7168 21.216 10.5998 21.187 10.5228 21.155C10.371 21.0922 10.233 21.0001 10.1169 20.8839C10.0007 20.7677 9.90857 20.6298 9.84575 20.478C9.80575 20.382 9.77275 20.231 9.75975 19.874C9.72975 19.082 9.32075 18.319 8.59475 17.9C7.86875 17.481 7.00375 17.508 6.30275 17.878C5.98675 18.045 5.83975 18.092 5.73575 18.105C5.40719 18.1484 5.07483 18.0596 4.81175 17.858C4.74575 17.807 4.66175 17.72 4.52675 17.52C4.33863 17.2272 4.15955 16.9288 3.98975 16.625C3.75175 16.213 3.59275 15.935 3.48375 15.713C3.37675 15.496 3.34375 15.38 3.33375 15.297C3.29034 14.9684 3.37918 14.6361 3.58075 14.373C3.64475 14.29 3.75875 14.186 4.06075 13.996C4.73275 13.574 5.18875 12.838 5.18875 12C5.18875 11.162 4.73275 10.426 4.06075 10.004C3.75875 9.814 3.64475 9.71 3.58075 9.627C3.37918 9.36392 3.29034 9.03157 3.33375 8.703C3.34375 8.62 3.37775 8.503 3.48375 8.287C3.59275 8.064 3.75175 7.787 3.98975 7.375C4.22775 6.963 4.38875 6.686 4.52675 6.48C4.66175 6.28 4.74575 6.193 4.81175 6.142C5.07483 5.94043 5.40719 5.85158 5.73575 5.895C5.83975 5.908 5.98575 5.955 6.30275 6.122C7.00275 6.492 7.86875 6.52 8.59475 6.1C9.32075 5.681 9.72975 4.918 9.75975 4.126C9.77275 3.769 9.80575 3.618 9.84575 3.522C9.97275 3.215 10.2158 2.972 10.5228 2.845Z" fill="#63707C"/>
</svg>
