<svg width="18" height="18" viewBox="0 0 18 18" fill="none" xmlns="http://www.w3.org/2000/svg">
<path d="M1 12.5H7C7.13261 12.5 7.25975 12.5527 7.35352 12.6465C7.44728 12.7403 7.5 12.8674 7.5 13V17C7.5 17.1326 7.44728 17.2597 7.35352 17.3535C7.25975 17.4473 7.13261 17.5 7 17.5H1C0.867391 17.5 0.740252 17.4473 0.646484 17.3535C0.552717 17.2597 0.5 17.1326 0.5 17V13C0.5 12.8674 0.552716 12.7403 0.646484 12.6465C0.740253 12.5527 0.867392 12.5 1 12.5ZM11 9.5H17C17.1326 9.5 17.2597 9.55272 17.3535 9.64648C17.4473 9.74025 17.5 9.86739 17.5 10V17C17.5 17.1326 17.4473 17.2597 17.3535 17.3535C17.2597 17.4473 17.1326 17.5 17 17.5H11C10.8674 17.5 10.7403 17.4473 10.6465 17.3535C10.5527 17.2597 10.5 17.1326 10.5 17V10C10.5 9.86739 10.5527 9.74025 10.6465 9.64648C10.7403 9.55272 10.8674 9.5 11 9.5ZM1 0.5H7C7.13261 0.5 7.25975 0.552716 7.35352 0.646484C7.44728 0.740253 7.5 0.867392 7.5 1V9C7.5 9.13261 7.44728 9.25975 7.35352 9.35352C7.25975 9.44728 7.13261 9.5 7 9.5H1C0.867392 9.5 0.740253 9.44728 0.646484 9.35352C0.552716 9.25975 0.5 9.13261 0.5 9V1C0.5 0.867392 0.552716 0.740252 0.646484 0.646484C0.740252 0.552716 0.867392 0.5 1 0.5ZM11 0.5H17C17.1326 0.5 17.2597 0.552717 17.3535 0.646484C17.4473 0.740252 17.5 0.867391 17.5 1V6C17.5 6.13261 17.4473 6.25975 17.3535 6.35352C17.2597 6.44728 17.1326 6.5 17 6.5H11C10.8674 6.5 10.7403 6.44728 10.6465 6.35352C10.5527 6.25975 10.5 6.13261 10.5 6V1C10.5 0.867392 10.5527 0.740253 10.6465 0.646484C10.7403 0.552716 10.8674 0.5 11 0.5Z" stroke="#63707C"/>
</svg>
